<?xml version="1.0" encoding="UTF-8" standalone="no"?>
<svg xmlns:svg="http://www.w3.org/2000/svg" xmlns="http://www.w3.org/2000/svg" version="1.1" width="512px" height="512px" viewBox="0 0 512 512">
<path d="m 483.79661,254.84344 c -0.56634,-28.59695 -6.9946,-57.10493 -18.86734,-83.1716 C 453.09553,145.58208 435.921,121.94818 414.83528,102.41849 393.76285,82.874267 368.77213,67.423996 341.72345,57.231025 314.68984,46.998705 285.62219,42.110938 256.90639,42.703732 c -28.72022,0.548313 -57.31282,6.575475 -83.45926,17.688003 -26.16682,11.075746 -49.87242,27.146184 -69.45588,46.865765 -19.597641,19.70932 -35.079353,43.07292 -45.283208,68.34577 -10.242853,25.26088 -15.123651,52.40193 -14.511225,79.24017 0.569884,26.84252 6.631221,53.52593 17.785179,77.93055 11.117621,24.42087 27.24278,46.54499 47.022114,64.81638 19.76869,18.28593 43.19422,32.72084 68.51641,42.22264 25.31155,9.53944 52.48875,14.07222 79.38587,13.4837 26.90245,-0.55173 53.6037,-6.22476 78.0272,-16.64355 24.43944,-10.38544 46.58162,-25.43966 64.86135,-43.90095 18.2948,-18.45102 32.7236,-40.30398 42.21133,-63.91136 5.77684,-14.31002 9.69601,-29.2539 11.76195,-44.39366 0.55216,0.0299 1.10698,0.0513 1.66711,0.0513 15.6634,0 28.36128,-12.25449 28.36128,-27.37287 0,-0.76729 -0.0417,-1.52775 -0.10547,-2.2805 l 0.10547,-0.002 0,0 z m -45.06518,72.68779 c -10.4015,22.75455 -25.47375,43.36803 -43.95023,60.38283 -18.46585,17.02592 -40.32619,30.44632 -63.921,39.25867 -23.58772,8.84315 -48.87446,13.0235 -73.95381,12.43755 -25.08377,-0.55516 -49.89634,-5.8749 -72.596,-15.59997 -22.71118,-9.69427 -43.28817,-23.73313 -60.26506,-40.93526 C 107.05604,365.88232 93.677496,345.5383 84.905885,323.5998 76.100595,301.66473 71.953644,278.17111 72.558094,254.84344 c 0.576975,-23.33195 5.906236,-46.36792 15.622632,-67.44418 9.686262,-21.08566 23.707364,-40.19106 40.878354,-55.94757 17.163,-15.76848 37.45904,-28.17266 59.32558,-36.292994 21.86389,-8.151981 45.26106,-11.978195 68.52173,-11.395666 23.26511,0.558578 46.18812,5.525042 67.16394,14.556377 20.9838,9.003103 39.99649,22.027453 55.66964,37.972153 15.68556,15.93528 28.01119,34.76953 36.06757,55.03999 8.08651,20.2696 11.86831,41.9395 11.26652,63.51189 l 0.10546,0 c -0.0638,0.75275 -0.10546,1.51235 -0.10546,2.2805 0,14.11927 11.07507,25.73648 25.29737,27.21205 -2.75814,14.89341 -7.32519,29.43353 -13.64,43.19524 z" id="path3">
<animateTransform attributeName="transform" attributeType="XML" type="rotate" from="0 256 256" to="360 256 256" dur="10s" repeatCount="indefinite"/>
</path></svg>