<?xml version="1.0" encoding="utf-8"?>
<!DOCTYPE svg PUBLIC "-//W3C//DTD SVG 1.1//EN" "http://www.w3.org/Graphics/SVG/1.1/DTD/svg11.dtd">
<svg version="1.1" id="Capa_1" xmlns="http://www.w3.org/2000/svg" xmlns:xlink="http://www.w3.org/1999/xlink" x="0px" y="0px" width="512px" height="512px" viewBox="0 0 512 512" enable-background="new 0 0 512 512" xml:space="preserve"><path d="M512,256c-0.639-33.431-7.892-66.758-21.288-97.231c-13.352-30.5-32.73-58.129-56.521-80.96 c-23.776-22.848-51.973-40.91-82.492-52.826C321.197,13.021,288.4,7.307,256,8c-32.405,0.641-64.666,7.687-94.167,20.678 c-29.524,12.948-56.271,31.735-78.367,54.788c-22.112,23.041-39.58,50.354-51.093,79.899C20.816,192.896,15.309,224.625,16,256 c0.643,31.38,7.482,62.574,20.067,91.104c12.544,28.549,30.738,54.413,53.055,75.773c22.305,21.377,48.736,38.252,77.307,49.36 C194.988,483.389,225.652,488.688,256,488c30.354-0.645,60.481-7.277,88.038-19.457c27.575-12.141,52.558-29.74,73.183-51.322 c20.642-21.57,36.922-47.117,47.627-74.715c6.518-16.729,10.94-34.199,13.271-51.898c0.623,0.035,1.249,0.06,1.881,0.06 c17.673,0,32-14.326,32-32c0-0.897-0.047-1.786-0.119-2.666L512,256L512,256z M461.153,340.975 c-11.736,26.601-28.742,50.699-49.589,70.59c-20.835,19.904-45.5,35.593-72.122,45.895C312.828,467.798,284.297,472.685,256,472 c-28.302-0.649-56.298-6.868-81.91-18.237c-25.625-11.333-48.842-27.745-67.997-47.855c-19.169-20.099-34.264-43.882-44.161-69.529 C51.997,310.736,47.318,283.271,48,256c0.651-27.276,6.664-54.206,17.627-78.845c10.929-24.65,26.749-46.985,46.123-65.405 c19.365-18.434,42.265-32.935,66.937-42.428C203.356,59.792,229.755,55.319,256,56c26.25,0.653,52.114,6.459,75.781,17.017 c23.676,10.525,45.128,25.751,62.812,44.391c17.698,18.629,31.605,40.647,40.695,64.344C444.412,205.448,448.679,230.781,448,256 h0.119c-0.072,0.88-0.119,1.768-0.119,2.666c0,16.506,12.496,30.087,28.543,31.812C473.431,307.889,468.278,324.887,461.153,340.975 z"/></svg>