<?xml version="1.0" encoding="UTF-8" standalone="no"?>
<svg
   xmlns:dc="http://purl.org/dc/elements/1.1/"
   xmlns:cc="http://creativecommons.org/ns#"
   xmlns:rdf="http://www.w3.org/1999/02/22-rdf-syntax-ns#"
   xmlns:svg="http://www.w3.org/2000/svg"
   xmlns="http://www.w3.org/2000/svg"
   xmlns:sodipodi="http://sodipodi.sourceforge.net/DTD/sodipodi-0.dtd"
   xmlns:inkscape="http://www.inkscape.org/namespaces/inkscape"
   version="1.1"
   x="0px"
   y="0px"
   width="512px"
   height="512px"
   viewBox="0 0 512 512"
   id="svg3336"
   inkscape:version="0.91pre3 r13670"
   sodipodi:docname="unknown.svg">
  <metadata
     id="metadata3344">
    <rdf:RDF>
      <cc:Work
         rdf:about="">
        <dc:format>image/svg+xml</dc:format>
        <dc:type
           rdf:resource="http://purl.org/dc/dcmitype/StillImage" />
      </cc:Work>
    </rdf:RDF>
  </metadata>
  <defs
     id="defs3342" />
  <sodipodi:namedview
     pagecolor="#ffffff"
     bordercolor="#666666"
     borderopacity="1"
     objecttolerance="10"
     gridtolerance="10"
     guidetolerance="10"
     inkscape:pageopacity="0"
     inkscape:pageshadow="2"
     inkscape:window-width="1920"
     inkscape:window-height="1138"
     id="namedview3340"
     showgrid="false"
     inkscape:zoom="1.8964844"
     inkscape:cx="256"
     inkscape:cy="256"
     inkscape:window-x="-8"
     inkscape:window-y="-8"
     inkscape:window-maximized="1"
     inkscape:current-layer="svg3336" />
  <g
     style="font-style:normal;font-weight:normal;font-size:40px;line-height:125%;font-family:sans-serif;letter-spacing:0px;word-spacing:0px;fill:#000000;fill-opacity:1;stroke:none;stroke-width:1px;stroke-linecap:butt;stroke-linejoin:miter;stroke-opacity:1"
     id="text3346"
     transform="matrix(2.483837,0,0,2.3746562,-364.87964,-308.41771)">
    <path
       d="m 267.244,280.99014 -33.5083,0 q -0.1831,-7.14111 -0.1831,-8.78906 0,-16.11328 5.31006,-26.55029 5.49316,-10.62012 21.60644,-23.62061 16.11328,-13.18359 19.22608,-17.21191 4.94384,-6.40869 4.94384,-14.28223 0,-10.62012 -8.60595,-18.31055 -8.60596,-7.69043 -23.07129,-7.69043 -14.09912,0 -23.62061,8.05665 -9.33838,7.87353 -12.81738,24.35302 l -33.87451,-4.21142 q 1.46484,-23.4375 19.95849,-39.73389 18.49366,-16.47949 48.70606,-16.47949 31.67724,0 50.354,16.6626 18.85986,16.47949 18.85986,38.45214 0,12.26807 -6.958,23.07129 -6.77491,10.80323 -29.29688,29.66309 -11.71875,9.70459 -14.64844,15.56396 -2.74658,5.85938 -2.38037,21.05713 z m -33.5083,49.62158 0,-36.80419 36.8042,0 0,36.80419 -36.8042,0 z"
       style="font-style:normal;font-variant:normal;font-weight:bold;font-stretch:normal;font-size:375px;font-family:Utsaah;-inkscape-font-specification:'Utsaah Bold'"
       id="path3351"
       inkscape:connector-curvature="0" />
  </g>
</svg>
