<?xml version="1.0" encoding="UTF-8" standalone="no"?>
<svg xmlns:svg="http://www.w3.org/2000/svg" xmlns="http://www.w3.org/2000/svg" version="1.1" width="512px" height="512px" viewBox="0 0 512 512">
  <g>
    <path transform="scale(2) translate(-128,-110)"
       d="m 267.244,280.99014 -33.5083,0 q -0.1831,-7.14111 -0.1831,-8.78906 0,-16.11328 5.31006,-26.55029 5.49316,-10.62012 21.60644,-23.62061 16.11328,-13.18359 19.22608,-17.21191 4.94384,-6.40869 4.94384,-14.28223 0,-10.62012 -8.60595,-18.31055 -8.60596,-7.69043 -23.07129,-7.69043 -14.09912,0 -23.62061,8.05665 -9.33838,7.87353 -12.81738,24.35302 l -33.87451,-4.21142 q 1.46484,-23.4375 19.95849,-39.73389 18.49366,-16.47949 48.70606,-16.47949 31.67724,0 50.354,16.6626 18.85986,16.47949 18.85986,38.45214 0,12.26807 -6.958,23.07129 -6.77491,10.80323 -29.29688,29.66309 -11.71875,9.70459 -14.64844,15.56396 -2.74658,5.85938 -2.38037,21.05713 z m -33.5083,49.62158 0,-36.80419 36.8042,0 0,36.80419 -36.8042,0 z"
       id="path3351"></path>
  </g>
</svg>
